<svg id="Capa_1" data-name="Capa 1" xmlns="http://www.w3.org/2000/svg" viewBox="0 0 394 92"><defs><style>.cls-1,.cls-2{fill:#231f20;}.cls-1,.cls-3{fill-rule:evenodd;}.cls-3{fill:#009ac9;}</style></defs><title>0</title><path class="cls-1" d="M279.8,39.5a11.67,11.67,0,0,1-3.6.62,6,6,0,0,1-4.45-1.56A6.59,6.59,0,0,1,270,33.75c0-4.26,2.81-6.6,6.51-6.6a7.4,7.4,0,0,1,2.94.53L279,29.51a5.69,5.69,0,0,0-2.45-.47c-2.39,0-4.18,1.49-4.18,4.63s1.64,4.62,3.88,4.62a4,4,0,0,0,1.44-.2v-3.3h-2V33h4.11Z"/><path class="cls-1" d="M283.68,33.67c0,2.64,1.07,4.68,3,4.68s3-2.15,3-4.77c0-2.36-.94-4.66-3-4.66s-3,2.13-3,4.75Zm8.33-.16c0,4.41-2.3,6.67-5.43,6.67s-5.24-2.74-5.24-6.49,2.15-6.59,5.43-6.59S292,29.92,292,33.51Z"/><path class="cls-1" d="M296.08,38.35a5.13,5.13,0,0,0,1.05.06c1.42,0,2.62-.61,2.62-2.15s-1.22-2.13-2.69-2.13h-1v4.22Zm0-5.84h1c1.43,0,2.32-.78,2.32-1.89s-.78-1.77-2.19-1.77a5.4,5.4,0,0,0-1.15.09v3.57Zm-2.21-5.06a17.12,17.12,0,0,1,3.11-.26,5.54,5.54,0,0,1,3.47.83,2.75,2.75,0,0,1,1.19,2.36,2.94,2.94,0,0,1-2,2.75v0a3.17,3.17,0,0,1,2.49,3.13A3.44,3.44,0,0,1,301,38.92c-.85.79-2.28,1.18-4.47,1.18a19.67,19.67,0,0,1-2.62-.15Z"/><rect class="cls-2" x="303.99" y="27.28" width="2.22" height="12.7"/><polygon class="cls-1" points="315.21 34.31 310.95 34.31 310.95 38.12 315.72 38.12 315.72 39.99 308.73 39.99 308.73 27.28 315.46 27.28 315.46 29.15 310.95 29.15 310.95 32.49 315.21 32.49 315.21 34.31"/><path class="cls-1" d="M319.81,33.09h1.13A2.13,2.13,0,0,0,323.32,31c0-1.36-.83-2.06-2.29-2.07a5,5,0,0,0-1.22.11v4.09Zm-2.21-5.64a18.83,18.83,0,0,1,3.19-.26,5.37,5.37,0,0,1,3.69,1,3.2,3.2,0,0,1,1.06,2.54,3.36,3.36,0,0,1-2.2,3.21v0a3.11,3.11,0,0,1,1.71,2.52A27.39,27.39,0,0,0,326,40h-2.28a18.5,18.5,0,0,1-.79-3c-.34-1.64-.9-2.18-2.13-2.2h-1V40H317.6Z"/><path class="cls-1" d="M327.57,40V27.28H330l2.94,5.45a39.53,39.53,0,0,1,2,4.19h0c-.13-1.68-.21-3.41-.21-5.45V27.28h2V40h-2.24l-3-5.54a40.81,40.81,0,0,1-2-4.28l0,0c.09,1.58.13,3.3.13,5.56V40Z"/><path class="cls-1" d="M340.94,33.67c0,2.64,1.07,4.68,3,4.68s3-2.15,3-4.77c0-2.36-.94-4.66-3-4.66s-3,2.13-3,4.75Zm8.33-.16c0,4.41-2.3,6.67-5.43,6.67s-5.24-2.74-5.24-6.49,2.15-6.59,5.43-6.59S349.27,29.92,349.27,33.51Z"/><path class="cls-1" d="M356.94,38.27a5.72,5.72,0,0,0,1.06.06c2.52,0,4.16-1.51,4.16-4.94,0-2.83-1.37-4.45-3.94-4.45a5.1,5.1,0,0,0-1.28.12v9.21Zm-2.23-10.82a18.52,18.52,0,0,1,3.27-.26,6.73,6.73,0,0,1,4.61,1.34,5.89,5.89,0,0,1,1.91,4.82,6.73,6.73,0,0,1-1.89,5.15,7.36,7.36,0,0,1-5.14,1.6,19.52,19.52,0,0,1-2.76-.17Z"/><polygon class="cls-1" points="372.83 34.31 368.57 34.31 368.57 38.12 373.34 38.12 373.34 39.99 366.35 39.99 366.35 27.28 373.07 27.28 373.07 29.15 368.57 29.15 368.57 32.49 372.83 32.49 372.83 34.31"/><polygon class="cls-1" points="273.65 53.15 269.86 53.15 269.86 49.8 281.52 49.8 281.52 53.15 277.65 53.15 277.65 64.69 273.65 64.69 273.65 53.15"/><path class="cls-1" d="M287.09,49.8v8.46c0,2.25.77,3.51,2.34,3.51s2.37-1.15,2.37-3.51V49.8h4V58c0,4.6-2.29,6.92-6.47,6.92s-6.23-2.23-6.23-7V49.8Z"/><path class="cls-1" d="M309.41,64.31a9.45,9.45,0,0,1-3.74.62c-5.56,0-8-3.47-8-7.45,0-5.25,3.85-7.93,8.29-7.93a8.94,8.94,0,0,1,3.71.66l-.77,3.14a7.28,7.28,0,0,0-2.76-.53,4,4,0,0,0-4.27,4.4,4,4,0,0,0,4.35,4.4,8.38,8.38,0,0,0,2.66-.42Z"/><path class="cls-1" d="M315.31,49.8v8.46c0,2.25.77,3.51,2.34,3.51S320,60.62,320,58.26V49.8h4V58c0,4.6-2.29,6.92-6.47,6.92s-6.23-2.23-6.23-7V49.8Z"/><path class="cls-1" d="M339.11,59.36c-.07-1.7-.09-3.69-.09-6H339c-.46,2-1.08,4.2-1.57,5.84l-1.48,5.19h-3.11l-1.24-5.17c-.4-1.61-.84-3.82-1.19-5.86h-.05c-.09,2.1-.15,4.31-.22,6l-.24,5.33h-3.67l.93-14.89h5.37l1,4c.42,1.66.86,3.65,1.17,5.46h.07c.42-1.81.9-3.91,1.35-5.48l1.12-4h5.24l.75,14.89h-3.87Z"/><path class="cls-1" d="M352.57,58.3l-.69-2.67c-.22-.84-.51-2.08-.75-2.94h0c-.23.86-.45,2.1-.65,2.94l-.64,2.67Zm2.82-12.08L352.74,49h-3.18l1.79-2.78Zm-6.12,15-.84,3.45H344.3l4.31-14.89h5.33l4.44,14.89h-4.31l-.95-3.45Z"/><path class="cls-1" d="M360,64.69V49.8h4.7l2.37,4.57a46.44,46.44,0,0,1,2.34,5.21h.06a56.35,56.35,0,0,1-.31-6.27V49.8h3.65V64.69h-4.2l-2.54-4.95a58,58,0,0,1-2.49-5.37h-.09c.11,2,.15,4.24.15,6.67v3.65Z"/><polygon class="cls-3" points="226.67 39.55 206.74 35.65 203.56 43.68 226.67 39.55"/><polygon class="cls-3" points="238.13 54.41 257.05 61.83 261.48 54.46 238.13 54.41"/><polygon class="cls-3" points="250.74 23.81 243.87 18.61 241.47 42.17 250.74 23.81"/><polygon class="cls-3" points="229.6 37.7 212.43 26.78 206.49 33.16 229.6 37.7"/><polygon class="cls-3" points="233.03 37.06 220.91 20.57 212.99 24.43 227.76 33.72 233.03 37.06"/><polygon class="cls-3" points="236.42 37.67 231.04 17.84 222.46 18.53 232.72 32.64 236.42 37.67"/><polygon class="cls-3" points="257.64 31.7 253.07 24.41 242.46 45.46 257.64 31.7"/><polygon class="cls-3" points="242.2 48.9 261.23 41.57 259.6 33.18 242.2 48.9"/><polygon class="cls-3" points="225.59 52.2 219.92 71.8 227.66 75.52 225.59 52.2"/><polygon class="cls-3" points="245.67 50.11 240.69 52.03 261.02 52.08 262.51 43.71 245.67 50.11"/><polygon class="cls-3" points="249.84 69.48 256.64 64.18 234.89 55.69 249.84 69.48"/><polygon class="cls-3" points="240.38 74.03 248.54 71.6 231.41 55.71 240.38 74.03"/><polygon class="cls-3" points="238.44 75.52 228.17 54.49 229.93 74.83 238.44 75.52"/><polygon class="cls-3" points="211.69 65.34 217.47 71.58 224.01 49.13 211.69 65.34"/><polygon class="cls-3" points="223.64 45.7 206.35 56.32 209.51 64.31 223.64 45.7"/><polygon class="cls-3" points="224.54 42.35 204.63 45.95 204.63 54.59 224.54 42.35"/><polygon class="cls-3" points="241.46 18.98 233.1 16.57 239.36 39.46 241.46 18.98"/><rect class="cls-2" x="190.49" y="16.53" width="2" height="59.06"/><polygon class="cls-1" points="51.72 36.33 47.44 36.33 47.44 40.86 52.26 40.86 52.26 42.17 45.89 42.17 45.89 29.77 52 29.77 52 31.07 47.44 31.07 47.44 35.05 51.72 35.05 51.72 36.33"/><path class="cls-1" d="M54,42.17V29.77h1.63l3.46,6.12a42.24,42.24,0,0,1,2,4.13h0C61,38.27,61,36.72,61,34.73v-5h1.43v12.4H60.89L57.41,36a38.51,38.51,0,0,1-2.06-4.18l-.06,0c.11,1.6.13,3.11.13,5.33v5Z"/><polygon class="cls-1" points="66.94 31.09 63.61 31.09 63.61 29.77 71.82 29.77 71.82 31.09 68.49 31.09 68.49 42.17 66.94 42.17 66.94 31.09"/><polygon class="cls-1" points="78.85 36.33 74.56 36.33 74.56 40.86 79.38 40.86 79.38 42.17 73.01 42.17 73.01 29.77 79.12 29.77 79.12 31.07 74.56 31.07 74.56 35.05 78.85 35.05 78.85 36.33"/><path class="cls-1" d="M90,37.11l-1-3.44c-.24-.83-.42-1.66-.59-2.43h0c-.17.79-.37,1.63-.59,2.41l-1,3.46Zm-3.61,1.21-1.14,3.85H83.67l3.81-12.4h1.8l3.79,12.4h-1.6l-1.18-3.85Z"/><path class="cls-1" d="M96.18,29.77V37.4c0,2.62,1.09,3.66,2.54,3.66s2.63-1.08,2.63-3.66V29.77h1.55v7.49c0,3.64-1.8,5.09-4.23,5.09s-4-1.36-4-5v-7.6Z"/><polygon class="cls-1" points="107.41 31.09 104.08 31.09 104.08 29.77 112.28 29.77 112.28 31.09 108.95 31.09 108.95 42.17 107.41 42.17 107.41 31.09"/><path class="cls-1" d="M120,27l-2.34,2.09h-1.25L118.1,27Zm-1,10.1-1-3.44c-.24-.83-.43-1.66-.59-2.43h-.06c-.16.79-.37,1.63-.59,2.41l-1,3.46Zm-3.6,1.21-1.14,3.85h-1.59l3.81-12.4h1.81L122,42.17h-1.6l-1.18-3.85Z"/><path class="cls-1" d="M125.13,35.6h1.32a2.37,2.37,0,0,0,2.63-2.39c0-1.57-1-2.32-2.63-2.32a6.13,6.13,0,0,0-1.32.11v4.6Zm-1.55-5.67a14.37,14.37,0,0,1,2.78-.26,4.7,4.7,0,0,1,3.35,1,3.19,3.19,0,0,1,.94,2.37,3.3,3.3,0,0,1-2.25,3.19v0c.94.32,1.49,1.2,1.79,2.6a18.44,18.44,0,0,0,.88,3.33h-1.6a17.88,17.88,0,0,1-.77-3c-.33-1.71-1-2.36-2.34-2.39h-1.23v5.39h-1.55Z"/><path class="cls-1" d="M140.35,35.91c0-2.45-1-5-3.35-5s-3.44,2.58-3.44,5.15,1.14,5,3.4,5,3.39-2.42,3.39-5.15Zm1.28,8c-1.45-.41-3-.94-4.17-1.4a1.85,1.85,0,0,0-.67-.19c-2.68-.07-4.85-2.21-4.85-6.29s2.13-6.48,5.13-6.48,4.9,2.52,4.9,6.28c0,3.24-1.27,5.22-3.1,5.9v.08c1.11.31,2.3.6,3.24.81Z"/><path class="cls-1" d="M145.3,29.77V37.4c0,2.62,1.08,3.66,2.53,3.66,1.61,0,2.64-1.08,2.64-3.66V29.77H152v7.49c0,3.64-1.8,5.09-4.23,5.09s-4-1.36-4-5v-7.6Z"/><rect class="cls-2" x="154.42" y="29.77" width="1.55" height="12.4"/><path class="cls-1" d="M166.11,41.82a6.64,6.64,0,0,1-2.82.51c-3.18,0-5.54-2.13-5.54-6.23s2.58-6.5,5.86-6.5a5.61,5.61,0,0,1,2.52.48l-.37,1.27a4.65,4.65,0,0,0-2.12-.44c-2.43,0-4.25,1.69-4.25,5.09s1.64,5,4.2,5a5.4,5.4,0,0,0,2.22-.44Z"/><path class="cls-1" d="M168.72,36c0,2.62,1.16,5,3.41,5s3.38-2.44,3.38-5.15c0-2.41-1-5-3.38-5s-3.41,2.5-3.41,5.15Zm8.41-.16c0,4.36-2.28,6.49-5.1,6.49S167.1,39.9,167.1,36s2.14-6.46,5.12-6.46S177.13,32.08,177.13,35.86Z"/><polygon class="cls-1" points="24.8 51.16 21.47 51.16 21.47 48.8 31 48.8 31 51.16 27.62 51.16 27.62 61.21 24.8 61.21 24.8 51.16"/><path class="cls-1" d="M34.5,48.8v7.14c0,2.14.81,3.22,2.24,3.22s2.29-1,2.29-3.22V48.8h2.79v7c0,3.83-1.93,5.65-5.17,5.65s-5-1.73-5-5.69V48.8Z"/><path class="cls-1" d="M52.57,60.86a8.11,8.11,0,0,1-3.18.53c-4.29,0-6.5-2.67-6.5-6.2,0-4.23,3-6.59,6.77-6.59a7.3,7.3,0,0,1,3.06.55l-.57,2.23a6,6,0,0,0-2.36-.46A3.73,3.73,0,0,0,45.84,55a3.7,3.7,0,0,0,4,4,7,7,0,0,0,2.34-.4Z"/><path class="cls-1" d="M56.42,48.8v7.14c0,2.14.81,3.22,2.24,3.22s2.28-1,2.28-3.22V48.8h2.8v7c0,3.83-1.93,5.65-5.17,5.65s-5-1.73-5-5.69V48.8Z"/><path class="cls-1" d="M75.87,56.46c-.06-1.49-.11-3.3-.11-5.1H75.7c-.38,1.58-.9,3.35-1.38,4.8L72.81,61H70.62L69.3,56.2c-.41-1.45-.83-3.22-1.12-4.84h0C68.07,53,68,55,67.92,56.49l-.22,4.72H65.1l.79-12.41h3.74l1.21,4.14c.39,1.44.78,3,1,4.44H72c.35-1.44.77-3.08,1.18-4.46l1.32-4.12h3.66l.68,12.41H76.05Z"/><path class="cls-1" d="M88.09,45.88l-2.25,2.26H83.6l1.54-2.26Zm-1.9,10-.77-2.63c-.22-.73-.44-1.65-.63-2.39h0c-.19.74-.37,1.68-.57,2.39l-.74,2.63ZM83.05,58l-.89,3.19H79.25l3.8-12.41h3.68l3.84,12.41h-3L86.6,58Z"/><path class="cls-1" d="M91.44,61.21V48.8h3.27l2.58,4.55a34.45,34.45,0,0,1,2,4.25h.06a44.64,44.64,0,0,1-.24-5.17V48.8h2.58V61.21H98.76l-2.65-4.79A44.51,44.51,0,0,1,94,52l-.06,0c.08,1.64.11,3.39.11,5.41v3.74Z"/><polygon class="cls-1" points="108.66 51.16 105.33 51.16 105.33 48.8 114.86 48.8 114.86 51.16 111.48 51.16 111.48 61.21 108.66 61.21 108.66 51.16"/><path class="cls-1" d="M118.36,48.8v7.14c0,2.14.81,3.22,2.24,3.22s2.29-1,2.29-3.22V48.8h2.79v7c0,3.83-1.93,5.65-5.17,5.65s-5-1.73-5-5.69V48.8Z"/><path class="cls-1" d="M130.1,54.3h1.1c1.4,0,2.23-.69,2.23-1.78s-.77-1.71-2.06-1.73a7.81,7.81,0,0,0-1.27.09V54.3ZM127.32,49a24.29,24.29,0,0,1,3.74-.26,6.33,6.33,0,0,1,4,1,3.16,3.16,0,0,1,1.14,2.59,3.28,3.28,0,0,1-2.19,3v.06a3.17,3.17,0,0,1,1.66,2.32,35.39,35.39,0,0,0,1,3.5h-2.87a15.15,15.15,0,0,1-.87-2.89c-.33-1.55-.86-2-2-2h-.84v4.88h-2.78Z"/><rect class="cls-2" x="137.44" y="48.8" width="2.81" height="12.4"/><path class="cls-1" d="M142,58.32a7.22,7.22,0,0,0,3.11.77c1.29,0,2-.53,2-1.34S146.48,56.53,145,56c-2.06-.72-3.41-1.86-3.41-3.66,0-2.12,1.77-3.74,4.69-3.74a7.49,7.49,0,0,1,3.17.63l-.63,2.26a5.85,5.85,0,0,0-2.59-.59c-1.21,0-1.8.55-1.8,1.2s.7,1.14,2.3,1.75c2.19.8,3.22,1.95,3.22,3.69,0,2.08-1.6,3.85-5,3.85a8,8,0,0,1-3.51-.76Z"/><path class="cls-1" d="M161.53,56.46c-.05-1.49-.11-3.3-.11-5.1h-.06c-.38,1.58-.9,3.35-1.38,4.8L158.48,61h-2.19L155,56.2c-.4-1.45-.83-3.22-1.12-4.84h0c-.07,1.68-.13,3.59-.22,5.13l-.22,4.72h-2.59l.79-12.41h3.73l1.22,4.14c.38,1.44.77,3,1.05,4.44h.05c.35-1.44.77-3.08,1.18-4.46l1.32-4.12h3.67l.68,12.41h-2.75Z"/><path class="cls-1" d="M168.21,55c0,2.43,1.14,4.14,3,4.14s3-1.8,3-4.21c0-2.23-1.07-4.14-3-4.14s-3,1.8-3,4.21Zm9-.16c0,4.06-2.46,6.53-6.09,6.53s-5.83-2.78-5.83-6.31c0-3.72,2.37-6.5,6-6.5C175.09,48.6,177.17,51.45,177.17,54.88Z"/></svg>